<svg width="59" height="59" viewBox="0 0 59 59" fill="none" xmlns="http://www.w3.org/2000/svg">
<path d="M28.4883 0H30.5349L33.5721 0.308905C33.6174 0.313284 33.661 0.328507 33.6991 0.353285C33.7373 0.378064 33.7689 0.411669 33.7913 0.451257C34.1329 1.0591 34.5129 1.67122 34.8218 2.29045C35.3531 3.35525 35.8973 4.41388 36.4542 5.46634C37.0762 6.64217 37.6199 7.86782 38.2077 9.07213C40.3354 13.4395 41.8114 17.051 43.2858 21.3201C44.1341 23.7828 44.7731 26.3708 45.4705 28.8976C46.064 31.0457 46.3302 33.2735 46.6732 35.4686C47.0831 38.0864 47.0304 40.7783 47.1286 43.2495C47.1357 43.4232 47.0874 43.594 47.0774 43.7762C47.0755 43.8208 47.0959 43.8512 47.1386 43.8673C47.1955 43.8873 47.2401 43.8683 47.2724 43.8104C47.4674 43.4545 47.52 42.9549 47.5955 42.6317C47.9712 40.9975 48.3612 39.6338 48.6757 37.7405C49.4628 33.003 49.5069 28.2328 48.8807 23.5323C48.7867 22.822 48.6174 22.0532 48.4878 21.3059C47.8844 17.8453 46.7088 14.4559 45.3083 11.2658C44.9112 10.3604 44.396 9.41519 43.9292 8.48421C43.5809 7.78953 43.2019 7.11288 42.792 6.45426C42.1344 5.39801 41.531 4.31328 40.7909 3.31966C40.4427 2.8518 40.0954 2.38203 39.7491 1.91037C39.7064 1.85153 39.7187 1.83492 39.7861 1.86055C44.6095 3.67697 48.9447 6.71904 52.2182 10.7134C56.4519 15.8827 58.7125 21.8786 59 28.7011V30.1076C58.7789 37.0392 56.5178 43.1247 52.2168 48.3643C48.6174 52.7487 43.3157 56.4001 37.785 57.8649C37.7252 57.881 37.7029 57.8592 37.7181 57.7994C37.7593 57.6328 37.8248 57.4606 37.8533 57.314C39.2633 50.2495 39.7083 43.3634 39.1883 36.6558C39.12 35.7703 38.9065 33.9273 38.5478 31.1268C38.2518 28.8178 37.7024 26.5231 37.2342 24.2355C36.9267 22.7394 36.4998 21.249 36.1141 19.7543C36.1008 19.7002 36.0699 19.6845 36.0216 19.7073C35.9846 19.7244 35.967 19.7533 35.9689 19.7941C36.0144 20.9045 36.134 22.0362 36.1169 23.1095C36.0828 25.4099 36.1354 27.7587 35.8835 30.0463C35.3142 35.181 34.4489 39.5441 32.9331 44.5151C31.4396 49.412 29.7132 54.204 27.7539 58.8912C27.7216 58.9691 27.6637 59.0051 27.5802 58.9994C22.9248 58.6777 18.0957 57.2912 14.1931 54.7701C14.1532 54.7436 14.139 54.7065 14.1504 54.6591C15.3616 49.6113 16.4689 44.5435 17.3712 39.4316C17.6018 38.1248 17.7996 36.8133 17.9647 35.497C18.0458 34.8465 18.2166 34.1461 18.3092 33.4585C18.3111 33.4424 18.3044 33.4324 18.2892 33.4286H18.2878C18.2717 33.4258 18.2617 33.432 18.2579 33.4471C18.1284 33.8956 17.9647 34.3454 17.8594 34.791C16.9243 38.7726 15.7715 42.8239 12.6289 45.6852C11.042 47.1301 9.29995 47.6169 7.25758 47.1286C6.76513 47.011 6.38323 46.8662 6.11186 46.6945C4.74696 45.829 4.14919 44.8254 3.32086 43.2567C1.11197 39.08 -0.151884 34.1817 0.0146367 29.4314C0.0544878 28.3267 0.164553 26.8904 0.344832 25.1224C0.348627 25.0778 0.360013 25.0759 0.37899 25.1167C1.56171 27.7189 2.90811 31.3788 5.51979 32.8948C6.87899 33.6834 7.87385 31.9354 8.19123 30.9147C9.25108 27.5068 10.3271 24.1036 11.4192 20.7052C12.0179 18.8423 12.4235 17.5274 12.6361 16.7606C13.2177 14.6604 13.5441 13.3247 13.6153 12.7534C13.712 11.9704 13.8971 11.1804 13.9782 10.4259C14.1162 9.14045 14.307 7.76391 14.2885 6.44145C14.278 5.70406 14.2894 4.9681 14.3226 4.23356C14.323 4.22138 14.3266 4.20939 14.3331 4.19869C14.3395 4.188 14.3487 4.17894 14.3596 4.17235C16.7953 2.71846 19.387 1.63658 22.1349 0.926715C22.1529 0.92206 22.1717 0.921068 22.1901 0.923799C22.2086 0.92653 22.2263 0.932927 22.2422 0.942614C22.2581 0.952301 22.2719 0.965081 22.2828 0.980198C22.2937 0.995316 22.3015 1.01246 22.3057 1.03063C22.6235 2.44751 22.9504 3.85016 23.2863 5.23857C23.9267 7.87969 24.4562 10.2266 24.8746 12.2793C25.1593 13.6725 25.4197 15.1724 25.656 16.7791C25.7969 17.7371 26.1271 19.4752 26.2267 20.8546C26.4288 23.6547 26.7049 26.4847 26.7434 29.2876C26.7908 32.7819 26.6352 36.269 26.2765 39.7491C26.1826 40.662 26.0929 41.5926 26.0075 42.5406C25.9857 42.7826 26.064 42.8211 26.2424 42.6559C26.2576 42.6417 26.259 42.5919 26.2466 42.5065C26.24 42.4562 26.2443 42.4087 26.2595 42.3641C27.01 40.0931 27.6694 37.796 28.2378 35.4728C28.6847 33.6422 28.9992 31.6535 29.3337 29.7317C29.7009 27.6178 29.8076 25.5053 29.95 23.3771C30.0135 22.4291 30.0372 21.4819 30.0211 20.5358C29.9855 18.4588 29.9628 16.3335 29.782 14.3093C29.5429 11.6316 29.1899 9.33405 28.7359 6.48558C28.4854 4.90547 28.0513 3.17161 27.7539 1.49755C27.6727 1.04487 27.5219 0.600728 27.3952 0.150894C27.3819 0.104392 27.3995 0.0792429 27.4479 0.0754468L28.4883 0Z" fill="#000033"/>
</svg>
